<?xml version="1.0" encoding="utf-8"?>
<!-- Generator: Adobe Illustrator 24.1.2, SVG Export Plug-In . SVG Version: 6.00 Build 0)  -->
<svg version="1.1" xmlns="http://www.w3.org/2000/svg" xmlns:xlink="http://www.w3.org/1999/xlink" x="0px" y="0px"
	 viewBox="0 0 3015 368" style="enable-background:new 0 0 3015 368;" xml:space="preserve">
<style type="text/css">
	.st0{display:none;}
	.st1{display:inline;}
	.st2{fill:#FFFFFF;}
	.st3{fill:none;}
</style>
<g id="Layer_2" class="st0">
	<rect class="st1" width="3015" height="367"/>
</g>
<g id="Layer_1">
	<g>
		<g>
			<path class="st2" d="M3013.1,1.8v81h-97.6v285h-101.7v-285h-96.5v-81H3013.1z"/>
		</g>
		<g>
			<path class="st2" d="M1552.4,366.8h-101.7l-135.5-204.5v204.5h-101.7V0.9h101.7L1450.6,208V0.9h101.7V366.8z"/>
			<path class="st2" d="M1643.7,340.1c-27.3-20.2-42-49.2-44.1-86.9h108.5c1,12.8,4.8,22.1,11.4,28c6.6,5.9,15.1,8.8,25.4,8.8
				c9.3,0,17-2.3,23.1-7c6-4.7,9.1-11.2,9.1-19.5c0-10.7-5-19-15.1-24.9c-10-5.9-26.3-12.5-48.8-19.7c-23.9-8-43.2-15.7-57.9-23.1
				c-14.7-7.4-27.5-18.3-38.4-32.7c-10.9-14.4-16.3-33.1-16.3-56.3c0-23.5,5.9-43.7,17.6-60.5c11.8-16.8,28-29.5,48.8-38.2
				c20.8-8.6,44.3-13,70.6-13c42.6,0,76.6,10,102,29.8c25.4,19.9,39,47.8,40.7,83.8h-110.6c-0.3-11.1-3.7-19.4-10.1-24.9
				c-6.4-5.5-14.6-8.3-24.7-8.3c-7.6,0-13.8,2.3-18.7,6.7c-4.8,4.5-7.3,10.9-7.3,19.2c0,6.9,2.7,12.9,8,17.9c5.4,5,12,9.3,20,13
				c8,3.6,19.7,8.2,35.3,13.8c23.2,8,42.3,15.8,57.4,23.6c15.1,7.8,28,18.7,38.9,32.7c10.9,14,16.3,31.8,16.3,53.2
				c0,21.8-5.5,41.4-16.3,58.7c-10.9,17.3-26.7,31-47.2,41c-20.6,10-44.9,15.1-72.9,15.1C1706,370.4,1671,360.3,1643.7,340.1z"/>
			<path class="st2" d="M2259.8,0.9v365.9h-101.7V219.9H2034v146.9h-101.7V0.9H2034v137.5h124.1V0.9H2259.8z"/>
		</g>
		<g>
			<path class="st2" d="M428.4,2.1V368H326.6V166.1l-69,201.9h-85.1l-69.6-203.5V368H1.2V2.1h123l91.9,237.7L305.9,2.1H428.4z"/>
		</g>
		<g>
			<rect x="669.2" y="2.5" class="st2" width="304.7" height="90.5"/>
			<g>
				<rect x="669.2" y="276" class="st2" width="304.7" height="91.5"/>
				<path class="st2" d="M973.9,2.5c-100.5,0-182,81.5-182,182s81.5,182,182,182s182-81.5,182-182S1074.4,2.5,973.9,2.5z
					 M973.9,275.1c-50,0-90.5-40.5-90.5-90.5S923.9,94,973.9,94c50,0,90.5,40.5,90.5,90.5S1023.9,275.1,973.9,275.1z"/>
				<path class="st2" d="M669.2,2.5c-100.5,0-182,81.5-182,182s81.5,182,182,182s182-81.5,182-182S769.8,2.5,669.2,2.5z
					 M669.2,275.1c-50,0-90.5-40.5-90.5-90.5S619.2,94,669.2,94c50,0,90.5,40.5,90.5,90.5S719.2,275.1,669.2,275.1z"/>
			</g>
		</g>
		<path class="st2" d="M2499.8,2.5c-100.5,0-182,81.5-182,182s81.5,182,182,182s182-81.5,182-182S2600.3,2.5,2499.8,2.5z
			 M2499.8,275c-50,0-90.5-40.5-90.5-90.5s40.5-90.5,90.5-90.5c50,0,90.5,40.5,90.5,90.5S2549.7,275,2499.8,275z"/>
		<g>
			<polygon class="st3" points="2465.6,1279.6 2527.3,1279.6 2527.3,1279.6 2465.6,1279.6 			"/>
		</g>
	</g>
	<g>
	</g>
	<g>
	</g>
	<g>
	</g>
	<g>
	</g>
	<g>
	</g>
	<g>
	</g>
	<g>
	</g>
	<g>
	</g>
	<g>
	</g>
	<g>
	</g>
	<g>
	</g>
	<g>
	</g>
	<g>
	</g>
	<g>
	</g>
	<g>
	</g>
</g>
</svg>
