<?xml version="1.0" encoding="utf-8"?>
<!-- Generator: Adobe Illustrator 24.1.2, SVG Export Plug-In . SVG Version: 6.00 Build 0)  -->
<svg version="1.1" xmlns="http://www.w3.org/2000/svg" xmlns:xlink="http://www.w3.org/1999/xlink" x="0px" y="0px"
	 viewBox="0 0 4000 4000" style="enable-background:new 0 0 4000 4000;" xml:space="preserve">
<style type="text/css">
	.st0{fill:#FFFFFF;}
</style>
<g id="Layer_2">
	<rect width="4000" height="4000"/>
</g>
<g id="Layer_1">
	<g>
		<rect x="1390.6" y="1269.9" class="st0" width="1218.7" height="362.1"/>
		<rect x="1390.6" y="2364.1" class="st0" width="1218.7" height="366"/>
		<path class="st0" d="M2609.4,1269.9c-402.1,0-728.1,326-728.1,728.1s326,728.1,728.1,728.1s728.1-326,728.1-728.1
			S3011.5,1269.9,2609.4,1269.9z M2609.4,2360.2c-200,0-362.1-162.1-362.1-362.1s162.1-362.1,362.1-362.1
			c200,0,362.1,162.1,362.1,362.1S2809.4,2360.2,2609.4,2360.2z"/>
		<path class="st0" d="M1390.6,1269.9c-402.1,0-728.1,326-728.1,728.1s326,728.1,728.1,728.1s728.1-326,728.1-728.1
			S1792.8,1269.9,1390.6,1269.9z M1390.6,2360.2c-200,0-362.1-162.1-362.1-362.1s162.1-362.1,362.1-362.1s362.1,162.1,362.1,362.1
			S1590.6,2360.2,1390.6,2360.2z"/>
	</g>
	<g>
	</g>
	<g>
	</g>
	<g>
	</g>
	<g>
	</g>
	<g>
	</g>
	<g>
	</g>
	<g>
	</g>
	<g>
	</g>
	<g>
	</g>
	<g>
	</g>
	<g>
	</g>
	<g>
	</g>
	<g>
	</g>
	<g>
	</g>
	<g>
	</g>
</g>
</svg>
